<svg width="12" height="10" viewBox="0 0 12 10" fill="none" xmlns="http://www.w3.org/2000/svg">
<path id="Vector" d="M8.9537 3.32511H3.46341V2.98196H8.9537V3.32511ZM8.9537 4.01139H3.46341V4.35453H8.9537V4.01139ZM8.9537 5.04082H3.46341V5.38396H8.9537V5.04082ZM11.6988 0.57996V8.12911C11.6988 8.31853 11.5451 8.47225 11.3557 8.47225H7.58113L6.45116 9.60222C6.38424 9.66914 6.2964 9.70277 6.20855 9.70277C6.12071 9.70277 6.03286 9.66914 5.96595 9.60222L4.83598 8.47225H1.0614C0.87199 8.47225 0.718262 8.31853 0.718262 8.12911V0.57996C0.718262 0.390545 0.87199 0.236816 1.0614 0.236816H11.3557C11.5451 0.236816 11.6988 0.390545 11.6988 0.57996ZM11.0126 0.923103H1.40455V7.78597H5.1201L6.20855 8.87442L7.297 7.78597H11.0126V0.923103Z" fill="black" fill-opacity="0.3"/>
</svg>
