<svg width="34" height="40" viewBox="0 0 34 40" fill="none" xmlns="http://www.w3.org/2000/svg">
<g filter="url(#filter0_d_490_662)">
<path d="M17.3762 24.9516C19.16 24.9516 20.7402 24.7183 22.1171 24.2518C23.4939 23.7852 24.6059 23.1968 25.4495 22.4814L26.4352 23.9732C25.5583 24.6887 24.3463 25.3241 22.7976 25.8829C21.2489 26.4417 19.4564 26.7219 17.4218 26.7219C15.6381 26.7219 14.0894 26.4417 12.7739 25.8829C11.4602 25.3241 10.3798 24.539 9.53442 23.5293C8.68903 22.5197 8.05586 21.3324 7.63317 19.9642C7.21047 18.5977 7 17.1215 7 15.5373V11.9966C7 10.3811 7.23502 8.89797 7.70332 7.54712C8.17337 6.19626 8.83811 5.03167 9.69929 4.05161C10.5605 3.07328 11.6076 2.31952 12.8441 1.79206C14.0806 1.2646 15.4802 1 17.0465 1C18.7057 1 20.1527 1.28027 21.3892 1.83906C22.6257 2.39786 23.6588 3.17425 24.4884 4.16824C25.318 5.16223 25.9441 6.36686 26.3668 7.77864C26.7895 9.19217 27 10.7537 27 12.4614V14.3258H8.97141V15.2118C8.97141 18.4114 9.71507 20.8346 11.2006 22.4814C12.6862 24.1282 14.7453 24.9516 17.3745 24.9516H17.3762ZM17.0482 2.77213C14.5436 2.77213 12.5722 3.61119 11.1322 5.28757C9.69227 6.96569 8.97316 9.27921 8.97316 12.2298V12.6964H25.0286C25.0286 9.40454 24.3551 6.92565 23.0098 5.26494C21.6646 3.60422 19.6774 2.77213 17.0482 2.77213Z" fill="#5613E8"/>
<path d="M17.9706 1.51367H16.0308V7.73352H17.9706V1.51367Z" fill="#5613E8"/>
</g>
<defs>
<filter id="filter0_d_490_662" x="0" y="0" width="34" height="39.7219" filterUnits="userSpaceOnUse" color-interpolation-filters="sRGB">
<feFlood flood-opacity="0" result="BackgroundImageFix"/>
<feColorMatrix in="SourceAlpha" type="matrix" values="0 0 0 0 0 0 0 0 0 0 0 0 0 0 0 0 0 0 127 0" result="hardAlpha"/>
<feOffset dy="6"/>
<feGaussianBlur stdDeviation="3.5"/>
<feComposite in2="hardAlpha" operator="out"/>
<feColorMatrix type="matrix" values="0 0 0 0 0 0 0 0 0 0 0 0 0 0 0 0 0 0 0.35 0"/>
<feBlend mode="normal" in2="BackgroundImageFix" result="effect1_dropShadow_490_662"/>
<feBlend mode="normal" in="SourceGraphic" in2="effect1_dropShadow_490_662" result="shape"/>
</filter>
</defs>
</svg>
