<svg width="24" height="24" viewBox="0 0 24 24" fill="none" xmlns="http://www.w3.org/2000/svg">
<path fill-rule="evenodd" clip-rule="evenodd" d="M23.3509 12.6381C23.3509 11.8258 23.2748 11.0516 23.1478 10.3027H12.3848V14.7197H18.5278C18.2613 16.1412 17.4617 17.3597 16.2432 18.172V21.0404H19.9367C22.0944 19.0477 23.3382 16.1285 23.3382 12.6381H23.3509Z" fill="#4285F4"/>
<path fill-rule="evenodd" clip-rule="evenodd" d="M12.3853 23.8074C15.4695 23.8074 18.0587 22.7793 19.9499 21.0405L16.2564 18.172C15.2284 18.8574 13.921 19.2635 12.3853 19.2635C9.41528 19.2635 6.88951 17.2581 5.98835 14.5547H2.16797V17.512C4.04643 21.2435 7.90489 23.8074 12.3726 23.8074H12.3853Z" fill="#34A853"/>
<path fill-rule="evenodd" clip-rule="evenodd" d="M5.98807 14.5547C5.7596 13.8693 5.63268 13.1331 5.63268 12.3843C5.63268 11.6354 5.7596 10.8993 5.98807 10.2139V7.25659H2.16768C1.39345 8.80505 0.949219 10.5439 0.949219 12.3843C0.949219 14.2247 1.39345 15.9762 2.16768 17.512L5.98807 14.5547Z" fill="#FBBC05"/>
<path fill-rule="evenodd" clip-rule="evenodd" d="M12.3853 5.50479C14.0607 5.50479 15.571 6.07594 16.7514 7.21825L20.0261 3.94363C18.0461 2.10325 15.4568 0.973633 12.3853 0.973633C7.91759 0.973633 4.05913 3.53748 2.18066 7.26902L6.00105 10.2263C6.9022 7.52286 9.41528 5.51748 12.398 5.51748L12.3853 5.50479Z" fill="#EA4335"/>
</svg>
