<svg xmlns="http://www.w3.org/2000/svg" width="14" height="12" viewBox="0 0 14 12" fill="none">
<path d="M12.9747 1.03315C12.3181 0.37485 11.429 0.00520833 10.5021 0.00520833C9.57518 0.00520833 8.68606 0.37485 8.02953 1.03315L7.00111 1.99283L5.97269 1.02989C5.31606 0.369973 4.42576 -0.000488589 3.49764 4.8363e-07C2.56953 0.000489556 1.67961 0.371889 1.02368 1.03249C0.367742 1.6931 -0.00048563 2.5888 4.80687e-07 3.52255C0.000486591 4.4563 0.369647 5.35161 1.02627 6.01152L6.81642 11.9222C6.84054 11.9468 6.86929 11.9664 6.901 11.9798C6.9327 11.9931 6.96674 12 7.00111 12C7.03548 12 7.06952 11.9931 7.10122 11.9798C7.13293 11.9664 7.16168 11.9468 7.1858 11.9222L12.9747 6.01283C13.2997 5.68589 13.5576 5.29774 13.7335 4.87052C13.9094 4.44331 14 3.98541 14 3.52299C14 3.06056 13.9094 2.60266 13.7335 2.17545C13.5576 1.74824 13.2997 1.36008 12.9747 1.03315ZM12.6072 5.64512L7.00111 11.3674L1.3937 5.64382C0.834615 5.08134 0.520523 4.31845 0.520523 3.52299C0.520523 2.72752 0.834615 1.96464 1.3937 1.40216C1.95279 0.839677 2.71108 0.52368 3.50175 0.52368C4.29242 0.52368 5.0507 0.839677 5.60979 1.40216L5.61627 1.40868L6.8242 2.54048C6.8722 2.58558 6.93543 2.61066 7.00111 2.61066C7.06679 2.61066 7.13002 2.58558 7.17802 2.54048L8.38595 1.40868L8.39243 1.40216C8.66723 1.11441 8.99634 0.88473 9.36049 0.726571C9.72464 0.568412 10.1165 0.484954 10.5131 0.481088C10.9097 0.477222 11.3031 0.553025 11.6702 0.704057C12.0374 0.855088 12.3708 1.07831 12.6511 1.36065C12.9314 1.64298 13.1529 1.97875 13.3026 2.34829C13.4522 2.71783 13.5271 3.1137 13.5228 3.51271C13.5184 3.91173 13.435 4.30586 13.2773 4.67202C13.1197 5.03818 12.891 5.36901 12.6046 5.64512H12.6072Z" fill="#3D3D3D"/>
</svg>