<svg width="52" height="43" viewBox="0 0 52 43" fill="none" xmlns="http://www.w3.org/2000/svg">
<g filter="url(#filter0_d_713_224)">
<path d="M47.5037 13.4887L37.3501 23.9884C37.0326 24.3168 36.6019 24.5013 36.1529 24.5013C35.7038 24.5013 35.2731 24.3168 34.9556 23.9884C34.6381 23.6601 34.4597 23.2147 34.4597 22.7503C34.4597 22.286 34.6381 21.8406 34.9556 21.5122L42.2217 14.0006H25.9993C21.0641 14.0064 16.3326 16.0363 12.8429 19.645C9.35311 23.2537 7.39011 28.1466 7.38451 33.25C7.38451 33.7142 7.20622 34.1593 6.88886 34.4875C6.5715 34.8156 6.14107 35 5.69226 35C5.24344 35 4.81301 34.8156 4.49565 34.4875C4.17829 34.1593 4 33.7142 4 33.25C4.00616 27.2185 6.32592 21.4358 10.4503 17.1709C14.5746 12.9059 20.1666 10.507 25.9993 10.5007H42.2217L34.9556 2.98901C34.7984 2.82643 34.6737 2.63341 34.5886 2.42097C34.5035 2.20854 34.4597 1.98086 34.4597 1.75092C34.4597 1.52099 34.5035 1.29331 34.5886 1.08087C34.6737 0.868442 34.7984 0.675422 34.9556 0.512834C35.2731 0.184472 35.7038 0 36.1529 0C36.3752 0 36.5954 0.045289 36.8008 0.133281C37.0063 0.221273 37.1929 0.350245 37.3501 0.512834L47.5037 11.0125C47.661 11.1751 47.7858 11.3681 47.871 11.5805C47.9562 11.7929 48 12.0207 48 12.2506C48 12.4806 47.9562 12.7083 47.871 12.9208C47.7858 13.1332 47.661 13.3262 47.5037 13.4887Z" fill="white"/>
</g>
<defs>
<filter id="filter0_d_713_224" x="0" y="0" width="52" height="43" filterUnits="userSpaceOnUse" color-interpolation-filters="sRGB">
<feFlood flood-opacity="0" result="BackgroundImageFix"/>
<feColorMatrix in="SourceAlpha" type="matrix" values="0 0 0 0 0 0 0 0 0 0 0 0 0 0 0 0 0 0 127 0" result="hardAlpha"/>
<feOffset dy="4"/>
<feGaussianBlur stdDeviation="2"/>
<feComposite in2="hardAlpha" operator="out"/>
<feColorMatrix type="matrix" values="0 0 0 0 0 0 0 0 0 0 0 0 0 0 0 0 0 0 0.5 0"/>
<feBlend mode="normal" in2="BackgroundImageFix" result="effect1_dropShadow_713_224"/>
<feBlend mode="normal" in="SourceGraphic" in2="effect1_dropShadow_713_224" result="shape"/>
</filter>
</defs>
</svg>
